/* XPM */
static char *_32b313d1c6147e1aa928b0b911758ef[] = {
/* columns rows colors chars-per-pixel */
"64 64 20 1 ",
"  c black",
". c #202020",
"X c #2C2C2C",
"o c gray22",
"O c #7B0000",
"+ c #7B0000",
"@ c #5C5C5C",
"# c #5C5C5C",
"$ c #7B0000",
"% c #7B0000",
"& c gray33",
"* c #7B0000",
"= c #7B0000",
"- c #7B0000",
"; c #7B0000",
": c #7B0000",
"> c #7B0000",
", c #7B0000",
"< c #2024FC",
"1 c #4040FC",
/* pixels */
"o$$$$$$$$$$$$$$$$$$$$$$$$$$$oo$$$$$$$$$$$$$oo$$$$$$$$$$$$o$$$$$o",
".=====================***%$$ .========*%%%% .========%%#@ ----* ",
".===%=$==*$**$***$$=%$$$$#@+ .==**%==*%%%%+ .=;-;-;;;;;*$ --%*% ",
".=*$%***$$=*=@**@%$$**$$#@@+ .=*==%**$%$=#+ .=-;;=;:-;=*$ ==-*+ ",
".=%=#*#*$$$*%%$@%#*@$#@@+++@ .=*%%**$%$#+@+ .=;-=:;-=*%%# %#$$+ ",
".=%$===@$$$=***%%$#@$$$##@+@ .==%==$###%@++ .=;=:<:=;=*#$ *%#@+ ",
".=**--===*===**#%+$@$$$$#+++ .===%%$#%%%#@+ .=-;=;;==-$$# *$+++ ",
".==*=--=*$@==*%%$###@$$#@+@@ .==%$%%%$%$@++ .=-;-=---=$#$ *@+@+ ",
".=*$*==%*$*##%%%@@$%+###@@++ .=*%%#%==$#$+@ .=-:--%%==*#@       ",
".=%%%=$$$==#+@+#+%#$#@##@+++ .=%%#$$%%#@+@+ .=-;=-%%%*%@+ *---= ",
".*$%=%%#*==##+++#@$#@#$$#+@+ .*%$##%%#$@+@+ .=-;;=%%%%$@@ =-*-% ",
".*%*$$=%@$+$++++@@%OO+$$$+++ .*%$###%+#+#++ .=-;;-=%%*$@@ *=%*@ ",
".*$*$@%%$@$@$@+#+#+OOO+##+@+ .*$%##@@#@+@@+ .=-;;=**$%#++ *=*#+ ",
".**$$$#@++@$@#@@++++OO++++++ .%%##@++++@+@+ .=-=;%*%*$$+@ %%$@# ",
".*$*@@#@$@#++@+@@@@+++++++++ .%@%@@++++++++ .*;-;;%=%#@++ $#@++ ",
".                            .              .*;-=**%%@+@+       ",
"=;-=-=====-====..............................*-;*;$*$$@++ #:::::",
";-=*=;-=%==$=*$ ..@$*$**==$$++OO...+#**=%$##.*;-;**:*$#@+ %::>;:",
";-**%==%$**$$** .@$****=-==%@##@+..#*=$%$%$@ **=-;**$$#+@ =:>,>-",
"-=*--**$$$*$$$$ .***-=--$%*@#@+@#..$=$#@$@+$ %--;-*%$@+@@ =::>-:",
"=%*-;-$$**$*+$$ O-*-%-=$+#$#++@#$ .%%=$##+#@ %;--##%$#@@+ -::-=-",
"==%*--$*$$@@#$$ O==--=-*#$#+@@@+# .#=%%@+$++ $===###$#+++ ;::-:=",
"-%$%*=*$$*@#$++ +=--=:*%$#@@@+##+ .##@++@+@@ $*==%###@+++ -:-;-=",
"-=%*$*$**$#$@$+ #*==%$%%##$#@#++# ..         $**;$$###+@+ -:-=*;",
"--*%-****$$#+++ #*=%$*%#+##*#$#$# ==;;==**% .**=**$##+@++ =::-::",
"-=%$%--@$*%%#+@ #*%$-=*$#$%:-%#@# =;;=*%#%$ .*;-=*$$#@@@+ =:-:;-",
"=*$%=--=*$%%#+@ +%%$*-**%%*-%$$#$ =*==%#=#@ .=;-;=*%#@+@@ =:::-=",
"-*-**=-=@$###++ O$$%-1-%=*$*%#%@$ ==*$%=%## .=-=;=*$#@@#+ %:::--",
"=%%==*==@#+@+++ O$$%*-==*==%*$+$+ ===*=##%# .==*=%*%$+++@ %:-::=",
"=*%===*$#@+@OO+  $%*=%=%=-#-#+@#+ =:-=%#@@@ .=*=%$$$$++++ %::;--",
"*%*%==$@@+++OO@  @$$*$*=*=-#+@$++ =*-=%###@ .=*;=*%##+#++ %::-*=",
"*%%$%%$@@#$$@+@ .+@$$$$*=#$*#$+++ =**=$@@#+ .==-;=%#@$$++ %:-:-*",
"*%=*#$$#@#$$@++ ..O+++++++++++++O =*=@#$#@+ .==--==*$@$@+ %:-:%%",
"*=*%%$@@+@##@++ ...               ==%$@@@++ .=;;=****%@++ %::%*%",
"$**%$$$$+@O++@+ ..@@@@@@###@@@@+..=%%#++@++ .=;;=*$**%$#+ #:-:**",
"$%%$#$$$+OOO+++ ..@#$**$*%%$$@@+ .==%$@+@++ .=*;*;$#%$#@+ #:-**%",
"$%@#$@$$+OOOO@+ ..@$**%*$#%##%#+ .==$*#@+++ .===-**##@@@+ #--*%%",
"$*$@$@#+@O+OO++ ..@*%#**#%#+#*## .==*=$#@++ .=;=**#++#+++ #-*%*%",
"$%*%#$#+++OOO++ ..@*$*$$*#%@+##+ .=*=*%$#@@ .=;*=*#@++#++ #-***%",
"$*%$@#$#++@++@@ ..@%**$#@+@++@++ .==%$$#@@+ .*-**$$#@@+++ #***$*",
"                ..@*%$@++@++###+ .**$$@#+@+ .*=*$+$++@+++ .     ",
"......++##%%%$#@++.              .*=$@##++@ .%$+@+##@++++ .####.",
"..*=-;;;;;;;;;;;;---==**$.........**$#@++++ .%$@@++++@+#+ .#+$+.",
"..=;;;;;-=-;===;==--$%%%@ .++@@#..*$%#+++++ ..            .+++#.",
"..=;--=--;;;*=;;;-=%-@$+@ .+*%-$ .%$%@#@+@@ ....................",
"..;;;--;;**=;;*-%=**$%@+@ .+=-*+ .$$@#@++++ ..;;;;;;;;;;;;;---=.",
"..;=-=---***;=%%=$***$#++ .@--=% ..         ..;;;;--==---==-;=% ",
"..;;-*%--=**=;;===$**$++@ .@=%#+ .%*=-===*%%..;--;-=::=-=*;;**% ",
"..;;*=;-%=---$==,=*@#@+@+ .#*#++ .*=-=*-*-## .;;--=;;:$$*%$*#%$ ",
"..;;;;=%;%-$$=%==*$**$@@@ .#%@+@ .=--=%$%#+@ .;-;-=--=$$$*=$$$# ",
"..;=;*==;-*$$$==#$*$$@+$+ ..     .*=%%$#+@++ .;;->>=*=*$$=%%*@+ ",
"..;-**;>;=%=$$==%%$*##@++ ........           .;-=>>:;-=*-$#**@+ ",
"..;=;=>1>**=*%$%%%%$OO+@+ .***=======***%%##..;-=*::=*$*$%**$@+ ",
"..;-;-;>;=$==@@@$%%#OOO++ .*=*%=%*==%*=$$##+ .;==-*%*%=%$%=%#@+ ",
"..;=;---%%%$#@@@@###+OO++ .**%%%===-*%%%@#++ .;;=**%%$%***%#@++ ",
"..=;--=$$*=**$@@@@#@+$+++ .=%==-*=*===*%$#+@ .;-=*$$$#$%*$@+@#+ ",
"..;=;-%%-$==*#$+#$$+@+++@ .==%=*%$%*==*%$+@@ .;-;-=%#++$#++OO@+ ",
"..;=;=*%$@%==*#@+$$$+@+@+ .*%=*%=$%***%$#@++ .;;==$$*++@#++OOO+ ",
"..-=%%%=@%@%**##@$$$++#++ .*=%$$$%#$$%$#@+++ .-*=*;*$$@#+#++OO+ ",
"..-=#@%@=$$*+@++@+$$++@@+ .%*=$#$@$#$###+@@+ .-;=$*##$+@+++@@@+ ",
"..==%%@%+@+@#@#@#++++++++ .%*%$#@##@+#++@@++ .=$*$%*$#@+@+@++++ ",
"..=*$%*######@@@@@@@@@@@@ .%$######@@@@@@#@#..=*$%$##@@@@@@@@@@.",
"oo$$$$$$$$$$$$$$$$$$$$$$$oo$$$$$$$$$$$$$$$$$oo$$$$$$$$$$$$$$$$$X",
"&&&&&&&&&&&&&&&&&&&&&&&&&&&&&&&&&&&&&&&&&&&&&&&&&&&&&&&&&&&&&&&&"
};
